<svg width="12" height="15" viewBox="0 0 20 20" fill="none" xmlns="http://www.w3.org/2000/svg">
  <g clip-path="url(#clip0)">
    <path d="M0.9375 5.625H4.45312C4.58203 5.625 4.6875 5.73047 4.6875 5.85938V6.32812C4.6875 6.45703 4.58203 6.5625 4.45312 6.5625H0.9375V8.4375H4.45312C4.58203 8.4375 4.6875 8.54297 4.6875 8.67188V9.14062C4.6875 9.26953 4.58203 9.375 4.45312 9.375H0.9375V11.25H4.45312C4.58203 11.25 4.6875 11.3555 4.6875 11.4844V11.9531C4.6875 12.082 4.58203 12.1875 4.45312 12.1875H0.9375V14.0625C0.9375 14.5781 1.35938 15 1.875 15H9.375C9.89062 15 10.3125 14.5781 10.3125 14.0625V3.75H0.9375V5.625ZM10.5469 0H0.703125C0.316406 0 0 0.316406 0 0.703125V2.10938C0 2.49609 0.316406 2.8125 0.703125 2.8125H10.5469C10.9336 2.8125 11.25 2.49609 11.25 2.10938V0.703125C11.25 0.316406 10.9336 0 10.5469 0Z" fill="black"/>
  </g>
  <defs>
    <clipPath id="clip0">
      <rect width="15.25" height="15" fill="white"/>
    </clipPath>
  </defs>
</svg>
