<svg width="20" height="20" viewBox="0 0 20 20" fill="none" xmlns="http://www.w3.org/2000/svg">
  <path d="M8.75 1.25C8.75 0.559766 8.19023 0 7.5 0H5C4.30977 0 3.75 0.559766 3.75 1.25V5H8.75V1.25ZM18.75 5C18.0598 5 17.5 5.55977 17.5 6.25C17.5 6.94023 18.0598 7.5 18.75 7.5C19.4402 7.5 20 6.94023 20 6.25C20 5.55977 19.4402 5 18.75 5ZM8.75 6.25H3.75C1.67891 6.25 0 7.92891 0 10V18.75C0 19.4402 0.559766 20 1.25 20H11.25C11.9402 20 12.5 19.4402 12.5 18.75V10C12.5 7.92891 10.8211 6.25 8.75 6.25ZM6.25 16.25C4.52422 16.25 3.125 14.8508 3.125 13.125C3.125 11.3992 4.52422 10 6.25 10C7.97578 10 9.375 11.3992 9.375 13.125C9.375 14.8508 7.97578 16.25 6.25 16.25ZM18.75 3.75C19.4402 3.75 20 3.19023 20 2.5C20 1.80977 19.4402 1.25 18.75 1.25C18.0598 1.25 17.5 1.80977 17.5 2.5C17.5 3.19023 18.0598 3.75 18.75 3.75ZM15 5C14.3098 5 13.75 5.55977 13.75 6.25C13.75 6.94023 14.3098 7.5 15 7.5C15.6902 7.5 16.25 6.94023 16.25 6.25C16.25 5.55977 15.6902 5 15 5ZM11.25 1.25C10.5598 1.25 10 1.80977 10 2.5C10 3.19023 10.5598 3.75 11.25 3.75C11.9402 3.75 12.5 3.19023 12.5 2.5C12.5 1.80977 11.9402 1.25 11.25 1.25ZM15 1.25C14.3098 1.25 13.75 1.80977 13.75 2.5C13.75 3.19023 14.3098 3.75 15 3.75C15.6902 3.75 16.25 3.19023 16.25 2.5C16.25 1.80977 15.6902 1.25 15 1.25ZM18.75 8.75C18.0598 8.75 17.5 9.30977 17.5 10C17.5 10.6902 18.0598 11.25 18.75 11.25C19.4402 11.25 20 10.6902 20 10C20 9.30977 19.4402 8.75 18.75 8.75Z" fill="black"/>
</svg>
