<svg width="14" height="20" viewBox="0 0 20 20" fill="none" xmlns="http://www.w3.org/2000/svg">
  <g clip-path="url(#clip0)">
    <path d="M8.01641 0.862554C7.70625 -0.261665 6.08516 -0.314009 5.73359 0.862554C3.90664 7.02506 0 8.69967 0 13.043C0 16.8884 3.075 19.9997 6.875 19.9997C10.675 19.9997 13.75 16.8884 13.75 13.043C13.75 8.6778 9.85195 7.05319 8.01641 0.862554ZM6.875 17.4997C4.46289 17.4997 2.5 15.5368 2.5 13.1247C2.5 12.7794 2.77969 12.4997 3.125 12.4997C3.47031 12.4997 3.75 12.7794 3.75 13.1247C3.75 14.8477 5.15195 16.2497 6.875 16.2497C7.22031 16.2497 7.5 16.5294 7.5 16.8747C7.5 17.22 7.22031 17.4997 6.875 17.4997Z" fill="black"/>
  </g>
  <defs>
    <clipPath id="clip0">
      <rect width="20" height="20" fill="white"/>
    </clipPath>
  </defs>
</svg>
